# Blender 5.1.2
# www.blender.org
mtllib medieval_house.mtl
o House01.001
v -1.875000 2.500000 -0.000000
v -1.875000 5.000000 0.000001
v -1.875000 5.000000 -5.000000
v -1.875000 2.500000 -5.000000
v 0.000000 2.500000 -5.000000
v 0.000000 7.500000 -5.000000
v 1.875000 5.000000 -5.000000
v 1.875000 2.500000 -5.000000
v 1.875000 5.000000 0.000001
v 1.875000 2.500000 -0.000000
v 0.000000 2.500000 -0.000000
v 1.875000 2.500000 1.500000
v 0.000000 2.500000 1.500000
v 0.000000 7.500000 1.499999
v 1.875000 5.000000 1.500001
v 1.988382 4.848823 1.669023
v 0.000000 7.500000 1.739031
v 0.000000 0.000000 0.000000
v -1.875000 0.000000 0.000000
v 1.875000 0.000001 -5.000000
v 1.875000 0.000000 0.000000
v 0.000000 0.000001 -5.000000
v -1.875000 0.000001 -5.000000
v -1.875000 5.000000 1.500001
v -1.875000 2.500000 1.500000
v -1.988382 4.848823 1.669023
v -2.035346 4.786202 0.000001
v 0.000000 7.546335 1.499999
v -1.937165 5.020720 1.500001
v -2.050874 4.869109 1.668534
v 0.000000 7.546335 1.739031
v -1.988382 4.848824 -5.169023
v 0.000000 7.546336 -5.000000
v -1.937165 5.020720 -5.000000
v -1.937165 5.020721 0.000001
v 0.000000 7.546335 -0.000001
v 1.937165 5.020721 0.000001
v 1.937165 5.020720 1.500001
v 1.937165 5.020720 -5.000000
v 2.097512 4.806924 0.000001
v 2.050874 4.869110 -5.168532
v 2.050874 4.869109 1.668534
v 0.000000 7.546336 -5.239030
v 1.988382 4.848824 -5.169023
v 2.035346 4.786202 0.000001
v 0.000000 7.500000 -5.239030
v -2.050874 4.869110 -5.168532
v -2.097512 4.806924 0.000001
v -1.802746 0.000000 1.428900
v -1.802746 2.500000 1.428900
v -1.802746 2.500000 1.171100
v -1.802746 0.000000 1.171100
v -1.544946 2.500000 1.171100
v -1.544946 0.000000 1.171100
v -1.544946 2.500000 1.428900
v -1.544946 0.000000 1.428900
v 1.497253 0.000000 1.428900
v 1.497253 2.500000 1.428900
v 1.497253 2.500000 1.171100
v 1.497253 0.000000 1.171100
v 1.755054 2.500000 1.171100
v 1.755054 0.000000 1.171100
v 1.755054 2.500000 1.428900
v 1.755054 0.000000 1.428900
v -1.036889 2.518656 1.197230
v -1.597245 1.833057 1.197230
v -1.036889 2.518656 1.403673
v -1.597245 1.833057 1.403673
v -1.196734 2.649301 1.197230
v -1.757091 1.963701 1.197230
v -1.196734 2.649301 1.403673
v -1.757091 1.963701 1.403673
v 0.957529 2.518656 1.403673
v 1.517885 1.833057 1.403673
v 0.957529 2.518656 1.197230
v 1.517885 1.833057 1.197230
v 1.117374 2.649301 1.403673
v 1.677730 1.963701 1.403673
v 1.117374 2.649301 1.197230
v 1.677730 1.963701 1.197230
vn -1.0000 -0.0000 -0.0000
vn -0.0000 -0.0000 -1.0000
vn 1.0000 -0.0000 -0.0000
vn -0.0000 -1.0000 -0.0000
vn -0.8000 -0.6000 -0.0000
vn -0.0000 -0.0000 1.0000
vn 0.8000 -0.6000 -0.0000
vn -0.7893 0.6140 0.0002
vn -0.7935 0.6086 -0.0000
vn -0.7905 0.6124 0.0048
vn 0.7935 0.6086 -0.0000
vn 0.7921 0.6104 -0.0063
vn 0.7919 0.6106 0.0060
vn 0.8025 0.5966 0.0049
vn 0.8000 0.6000 -0.0000
vn 0.7985 0.6020 0.0012
vn 0.7905 0.6123 0.0149
vn 0.7939 0.6079 0.0112
vn 0.7955 0.6058 0.0114
vn 0.7895 0.6137 -0.0003
vn 0.3088 -0.9501 0.0443
vn 0.3101 -0.9496 0.0466
vn -0.0344 -0.0000 -0.9994
vn -0.0327 0.0022 -0.9995
vn -0.3088 -0.9510 -0.0143
vn -0.3102 -0.9505 -0.0167
vn -0.3159 -0.9478 0.0442
vn -0.3167 -0.9476 0.0415
vn 0.0132 -0.0165 -0.9998
vn 0.0109 -0.0180 -0.9998
vn 0.0344 -0.0000 0.9994
vn 0.0327 0.0021 0.9995
vn -0.0132 -0.0165 0.9998
vn -0.0109 -0.0179 0.9998
vn 0.3162 -0.9486 -0.0143
vn 0.3162 -0.9486 -0.0115
vn -0.8039 0.5947 -0.0015
vn -0.8000 0.6000 -0.0000
vn -0.7986 0.6019 -0.0012
vn 0.8005 0.5992 -0.0066
vn -0.7905 0.6123 -0.0149
vn -0.7939 0.6079 -0.0112
vn -0.7957 0.6057 -0.0114
vn -0.8002 0.5998 0.0068
vn 0.7743 -0.6328 -0.0000
vn -0.7743 0.6328 -0.0000
vn -0.7743 -0.6328 -0.0000
vn 0.7743 0.6328 -0.0000
vn -0.7921 0.6101 0.0174
vn -0.7924 0.6099 0.0119
vn -0.7939 0.6079 0.0112
vn -0.7929 0.6093 0.0067
vn -0.7908 0.6121 -0.0052
vn 0.7897 0.6135 0.0019
vn 0.8000 0.5999 0.0065
vn 0.7894 0.6139 0.0001
vn 0.7945 0.6070 -0.0176
vn 0.7923 0.6100 -0.0120
vn 0.7939 0.6079 -0.0112
vn 0.3159 -0.9478 0.0442
vn 0.3151 -0.9479 0.0467
vn -0.0132 -0.0165 -0.9998
vn -0.0160 -0.0166 -0.9997
vn -0.3162 -0.9486 -0.0143
vn -0.3162 -0.9486 -0.0114
vn -0.3088 -0.9501 0.0443
vn -0.3093 -0.9501 0.0417
vn 0.0344 -0.0000 -0.9994
vn 0.0327 0.0022 -0.9995
vn 0.0132 -0.0165 0.9998
vn 0.0159 -0.0166 0.9997
vn -0.0344 -0.0000 0.9994
vn -0.0327 0.0021 0.9995
vn 0.3088 -0.9510 -0.0143
vn 0.3094 -0.9508 -0.0116
vn -0.8004 0.5995 -0.0067
vn 0.8039 0.5948 0.0017
vn 0.8010 0.5987 0.0021
vn -0.7893 0.6140 -0.0001
vn -0.8039 0.5947 -0.0016
vn -0.8011 0.5985 -0.0022
vt 0.728362 0.490592
vt 0.976711 0.988147
vt 0.728362 0.988147
vt 0.216337 0.496099
vt 0.029947 0.743845
vt 0.029947 0.496099
vt 0.976710 0.986698
vt 0.728160 0.490592
vt 0.728160 0.986698
vt 0.426546 0.061941
vt 0.231841 0.217704
vt 0.231841 0.061941
vt 0.669701 0.058643
vt 0.668715 0.058727
vt 0.668715 0.058643
vt 0.215741 0.495982
vt 0.025600 0.249514
vt 0.215741 0.249514
vt 0.728164 0.988014
vt 0.479545 0.490773
vt 0.479545 0.988014
vt 0.215572 0.742266
vt 0.404800 0.496105
vt 0.215572 0.496105
vt 0.728456 0.490844
vt 0.479879 0.988000
vt 0.479879 0.490844
vt 0.215543 0.496118
vt 0.027248 0.745412
vt 0.027248 0.496118
vt 0.976710 0.490592
vt 0.728362 0.341325
vt 0.976710 0.341325
vt 0.728160 0.341761
vt 0.670772 0.056348
vt 0.670857 0.056877
vt 0.670772 0.056877
vt 0.510741 0.025565
vt 0.699331 0.009671
vt 0.699331 0.025564
vt 0.403839 0.745412
vt 0.403839 0.496118
vt 0.026344 0.742266
vt 0.026344 0.496105
vt 0.405880 0.495982
vt 0.405880 0.249514
vt 0.670772 0.058643
vt 0.670832 0.058703
vt 0.037136 0.217704
vt 0.037136 0.061941
vt 0.402727 0.743845
vt 0.402727 0.496099
vt 0.510744 0.457705
vt 0.699332 0.125289
vt 0.699332 0.457706
vt 0.510741 0.125291
vt 0.513071 0.358582
vt 0.698758 0.456774
vt 0.513072 0.456772
vt 0.513071 0.031284
vt 0.698759 0.358583
vt 0.497424 0.358582
vt 0.501975 0.020251
vt 0.698758 0.472421
vt 0.501976 0.467804
vt 0.698759 0.015634
vt 0.698759 0.031281
vt 0.669701 0.056348
vt 0.669786 0.058113
vt 0.669701 0.058113
vt 0.660463 0.144077
vt 0.660493 0.147061
vt 0.660410 0.147060
vt 0.665033 0.147066
vt 0.669400 0.144066
vt 0.664994 0.147139
vt 0.660754 0.137831
vt 0.660544 0.147061
vt 0.660493 0.147062
vt 0.660757 0.134847
vt 0.660804 0.137830
vt 0.665087 0.141769
vt 0.665171 0.141772
vt 0.660682 0.146991
vt 0.665048 0.143990
vt 0.660643 0.147064
vt 0.660737 0.141693
vt 0.660819 0.141695
vt 0.660706 0.134847
vt 0.660545 0.144078
vt 0.494849 0.125291
vt 0.499472 0.014360
vt 0.669761 0.058703
vt 0.668715 0.056264
vt 0.669761 0.056288
vt 0.669786 0.056264
vt 0.670832 0.056288
vt 0.699332 0.473598
vt 0.499475 0.468910
vt 0.669786 0.058727
vt 0.669786 0.058643
vt 0.878206 0.297129
vt 0.851317 0.042443
vt 0.878206 0.042443
vt 0.878257 0.297125
vt 0.852231 0.042401
vt 0.878257 0.042401
vt 0.875840 0.297061
vt 0.853077 0.042446
vt 0.875840 0.042446
vt 0.879047 0.297067
vt 0.850648 0.042410
vt 0.879047 0.042410
vt 0.876692 0.196542
vt 0.851226 0.305772
vt 0.851226 0.196542
vt 0.876692 0.305772
vt 0.876693 0.196542
vt 0.216337 0.988451
vt 0.426546 0.217704
vt 0.025600 0.495982
vt 0.728164 0.490773
vt 0.404800 0.742266
vt 0.728456 0.988000
vt 0.215543 0.992722
vt 0.976710 0.341761
vt 0.669351 0.143999
vt 0.660706 0.134846
vt 0.665000 0.143923
vt 0.660623 0.134845
vt 0.668715 0.056348
vt 0.669786 0.056348
vt 0.851317 0.297129
vt 0.852231 0.297125
vt 0.853077 0.297061
vt 0.850645 0.297067
s 0
usemtl Material.001
f 1/1/1 3/2/1 4/3/1
f 5/4/2 7/5/2 8/6/2
f 7/7/3 10/8/3 8/9/3
f 10/10/4 13/11/4 11/12/4
f 15/13/5 17/14/5 14/15/5
f 11/16/6 19/17/6 18/18/6
f 8/19/3 21/20/3 20/21/3
f 5/22/2 20/23/2 22/24/2
f 1/25/1 23/26/1 19/27/1
f 13/28/6 24/29/6 25/30/6
f 2/31/1 25/32/1 24/33/1
f 9/31/3 12/34/3 10/8/3
f 24/35/7 27/36/7 2/37/7
f 29/38/8 31/39/9 28/40/9
f 15/41/6 13/28/6 12/42/6
f 4/43/2 22/24/2 23/44/2
f 10/45/6 18/18/6 21/46/6
f 3/47/7 27/36/7 32/48/7
f 11/12/4 25/49/4 1/50/4
f 3/51/2 5/4/2 4/52/2
f 34/53/10 36/54/9 33/55/9
f 35/56/9 28/40/9 36/54/9
f 37/57/11 28/58/11 38/59/12
f 39/60/13 36/61/11 37/57/11
f 39/60/14 40/62/15 41/63/16
f 38/59/17 31/64/18 42/65/19
f 39/60/20 43/66/11 33/67/11
f 7/68/5 45/69/5 9/70/5
f 45/71/21 42/72/22 16/73/21
f 46/74/23 47/75/24 43/76/23
f 27/77/25 47/78/26 32/79/25
f 27/77/27 30/80/28 48/81/27
f 46/74/29 41/82/30 44/83/29
f 17/84/31 42/85/32 31/86/31
f 17/84/33 30/87/34 26/88/33
f 45/71/35 41/89/36 40/90/35
f 29/38/37 48/91/38 30/92/39
f 15/13/5 45/69/5 16/93/5
f 7/68/5 46/94/5 44/95/5
f 38/59/40 40/62/15 37/57/15
f 24/35/7 17/96/7 26/97/7
f 34/53/41 43/98/42 47/99/43
f 3/47/7 46/100/7 6/101/7
f 34/53/44 48/91/38 35/56/38
f 50/102/1 52/103/1 49/104/1
f 51/105/2 54/106/2 52/107/2
f 53/108/3 56/109/3 54/110/3
f 55/111/6 49/112/6 56/113/6
f 58/102/1 60/103/1 57/104/1
f 59/105/2 62/106/2 60/107/2
f 61/108/3 64/109/3 62/110/3
f 63/111/6 57/112/6 64/113/6
f 68/114/6 71/115/6 72/116/6
f 65/117/45 68/116/45 66/118/45
f 69/117/2 66/116/2 70/114/2
f 71/116/46 70/117/46 72/115/46
f 76/114/2 79/115/2 80/116/2
f 73/117/47 76/116/47 74/118/47
f 77/117/6 74/116/6 78/114/6
f 79/116/48 78/117/48 80/115/48
f 1/1/1 2/31/1 3/2/1
f 5/4/2 6/119/2 7/5/2
f 7/7/3 9/31/3 10/8/3
f 10/10/4 12/120/4 13/11/4
f 15/13/5 16/93/5 17/14/5
f 11/16/6 1/121/6 19/17/6
f 8/19/3 10/122/3 21/20/3
f 5/22/2 8/123/2 20/23/2
f 1/25/1 4/124/1 23/26/1
f 13/28/6 14/125/6 24/29/6
f 2/31/1 1/1/1 25/32/1
f 9/31/3 15/126/3 12/34/3
f 24/35/7 26/97/7 27/36/7
f 29/38/49 30/92/50 31/39/51
f 15/41/6 14/125/6 13/28/6
f 4/43/2 5/22/2 22/24/2
f 10/45/6 11/16/6 18/18/6
f 3/47/7 2/37/7 27/36/7
f 11/12/4 13/11/4 25/49/4
f 3/51/2 6/119/2 5/4/2
f 34/53/52 35/56/9 36/54/9
f 35/56/9 29/38/53 28/40/9
f 37/57/11 36/61/11 28/58/11
f 39/60/54 33/67/11 36/61/11
f 39/60/55 37/57/15 40/62/15
f 38/59/56 28/58/11 31/64/11
f 39/60/57 41/63/58 43/66/59
f 7/68/5 44/95/5 45/69/5
f 45/71/60 40/90/60 42/72/61
f 46/74/62 32/127/62 47/75/63
f 27/77/64 48/81/64 47/78/65
f 27/77/66 26/128/66 30/80/67
f 46/74/68 43/76/68 41/82/69
f 17/84/70 16/129/70 42/85/71
f 17/84/72 31/86/72 30/87/73
f 45/71/74 44/130/74 41/89/75
f 29/38/76 35/56/38 48/91/38
f 15/13/5 9/70/5 45/69/5
f 7/68/5 6/131/5 46/94/5
f 38/59/77 42/65/78 40/62/15
f 24/35/7 14/132/7 17/96/7
f 34/53/79 33/55/9 43/98/9
f 3/47/7 32/48/7 46/100/7
f 34/53/80 47/99/81 48/91/38
f 50/102/1 51/133/1 52/103/1
f 51/105/2 53/134/2 54/106/2
f 53/108/3 55/135/3 56/109/3
f 55/111/6 50/136/6 49/112/6
f 58/102/1 59/133/1 60/103/1
f 59/105/2 61/134/2 62/106/2
f 61/108/3 63/135/3 64/109/3
f 63/111/6 58/136/6 57/112/6
f 68/114/6 67/117/6 71/115/6
f 65/117/45 67/115/45 68/116/45
f 69/117/2 65/115/2 66/116/2
f 71/116/46 69/114/46 70/117/46
f 76/114/2 75/117/2 79/115/2
f 73/117/47 75/115/47 76/116/47
f 77/117/6 73/115/6 74/116/6
f 79/116/48 77/114/48 78/117/48
